<svg enable-background="new 0 0 192 192" viewBox="0 0 192 192" xmlns="http://www.w3.org/2000/svg" xmlns:xlink="http://www.w3.org/1999/xlink"><clipPath id="a"><path d="m14.9 17.2h163.1v165.8h-163.1z"/></clipPath><g clip-path="url(#a)"><path d="m14.9 98.7c0 29.1 15.5 56.1 40.8 70.6s56.3 14.6 81.6 0 40.8-41.5 40.8-70.6-15.5-56.1-40.8-70.6-56.3-14.6-81.6 0-40.8 41.5-40.8 70.6" fill="#bc9200"/></g><path d="m14.9 90.6c0 29.1 15.5 56.1 40.8 70.6s56.3 14.6 81.6 0 40.8-41.5 40.8-70.6-15.5-56.1-40.8-70.6-56.3-14.6-81.6-.1-40.8 41.5-40.8 70.7" fill="#ffc90d"/><path d="m139.2 70.3-12.1-20.9c-1.4-2.4-4.5-4.2-7.3-4.2h-24c-1.7 0-3.1.7-3.8 1.9s-.6 2.8.2 4.2l3.4 5.9h-9c-2.7 0-5.9 1.8-7.3 4.2l-3.6 6.6-2.8-4.9c-2.4-4.2-2.4-4.2-3.6-4.2s-1.2 0-3.6 4.2l-12 20.9c-1.4 2.4-1.4 6 0 8.4l12.1 20.9c2.4 4.2 2.4 4.2 3.6 4.2 1.1 0 1.1 0 3.6-4.2l2.8-4.9 3.8 6.5c1.4 2.4 4.5 4.2 7.3 4.2h8.9l-3.4 5.8c-.8 1.5-.9 3-.2 4.2s2.1 1.9 3.8 1.9h24.1c2.7 0 5.9-1.8 7.3-4.2l12-20.9c.8-1.5.9-3 .2-4.2s-2.1-1.9-3.8-1.9h-7l4.3-7.5c1.4-2.4 1.4-6 0-8.4l-4.3-7.5h7.4.1c4.3 0 4.3 0 4.9-.9l.1-.1c.3-.9.3-.9-2.1-5.1zm-69.7 41c-.1.1-.1.2-.2.3-.1-.1-.1-.2-.2-.3l-12-20.9c-.7-1.2-.7-3.3 0-4.4l12.1-20.9c.1-.1.1-.2.2-.3.1.1.1.2.2.3l4 6.9-7 12.1c-1.4 2.4-1.4 6 0 8.4l7 12.1zm.4-20.9c-.7-1.2-.7-3.3 0-4.4l5.8-10.1 5.9 10.1c.7 1.2.7 3.3 0 4.4l-5.8 10.1zm13 22.5-4.9-8.5 7-12c1.4-2.4 1.4-6 0-8.4l-7-12 4.9-8.5c.1-.1.1-.2.2-.3l14.4 25-14.4 25c-.1-.1-.2-.2-.2-.3zm52.7-9.1h.3c0 .1-.1.2-.1.3l-12 20.9c-.7 1.2-2.5 2.2-3.9 2.2h-24.1c-.1 0-.2 0-.3 0 0-.1.1-.2.1-.2l4.5-7.8h12.6c2.7 0 5.9-1.8 7.3-4.2l6.4-11.1zm-33.2 11.3 5.3-9.2c.7-1.2 2.5-2.2 3.9-2.2h10.3l-5.3 9.2c-.7 1.2-2.5 2.2-3.9 2.2zm27.1-24.7-5.4 9.4h-12.6c-2.7 0-5.9 1.8-7.3 4.2l-6.4 11.1h-11.1c-.1 0-.2 0-.3 0l14.4-24.9h28.7c.1.1.1.1 0 .2zm0-4.4c.1.1.1.2.1.3h-28.8l-14.4-25h.2 11.4l6.4 11.1c1.4 2.4 4.5 4.2 7.2 4.2h12.5zm-27-24.8h10.2c1.3 0 3.2 1.1 3.9 2.2l5.3 9.1h-10.2c-1.3 0-3.2-1.1-3.9-2.2zm23.8 11.4-6.4-11.1c-1.4-2.4-4.5-4.2-7.3-4.2h-12.5l-4.6-7.9c-.1-.1-.1-.2-.1-.3h.3 24.1c1.3 0 3.2 1.1 3.9 2.2l12.1 20.9c.1.1.1.2.2.3z" fill="#fff"/></svg>